<?xml version="1.0" encoding="utf-8"?>
<!-- Generator: Adobe Illustrator 16.0.0, SVG Export Plug-In . SVG Version: 6.00 Build 0)  -->
<!DOCTYPE svg PUBLIC "-//W3C//DTD SVG 1.1//EN" "http://www.w3.org/Graphics/SVG/1.1/DTD/svg11.dtd">
<svg version="1.1" xmlns="http://www.w3.org/2000/svg" xmlns:xlink="http://www.w3.org/1999/xlink" x="0px" y="0px"
	 width="787.438px" height="102.837px" viewBox="0 0 787.438 102.837" enable-background="new 0 0 787.438 102.837"
	 xml:space="preserve">
<g id="bg">
</g>
<g id="圖層_2">
	<g>
		<path fill="#F7F8F8" d="M1.339,0h9.08v99.811h-9.08V0z"/>
		<path fill="#F7F8F8" d="M22.083,0h9.08l63.489,84.676V0h9.081v99.811h-9.081L31.164,15.281v84.529h-9.08V0z"/>
		<path fill="#F7F8F8" d="M115.841,0h66.073v7.604h-56.993v12.255h44.886v7.531h-44.886v72.421h-9.08V0z"/>
		<path fill="#F7F8F8" d="M199.077,34.403c2.878-6.301,6.877-11.861,11.998-16.687c5.462-5.167,12.07-9.301,19.821-12.401
			c7.752-3.101,16.622-4.873,26.614-5.315h2.29c10.677,0,19.72,1.342,27.131,4.023c7.405,2.683,13.521,6.141,18.343,10.372
			c5.857,5.119,9.99,10.804,12.403,17.053c2.411,6.252,3.618,12.207,3.618,17.866c0,0.886,0,1.846,0,2.88
			c0,0.886-0.1,1.747-0.296,2.583c-1.919,14.175-7.752,25.053-17.497,32.631c-10.68,8.268-26.011,12.402-45.992,12.402
			c-8.858,0-17.139-0.935-24.841-2.805c-7.704-1.871-14.482-4.726-20.339-8.564c-5.758-3.592-10.25-8.059-13.472-13.398
			c-3.225-5.34-4.835-11.652-4.835-18.937v-1.329C194.512,47.494,196.198,40.703,199.077,34.403z M257.657,7.751
			c-8.563,0.396-16.069,2.006-22.517,4.836c-6.448,2.831-12.083,6.214-16.906,10.151c-2.461,1.968-4.639,4.441-6.533,7.418
			c-1.896,2.979-3.483,5.98-4.763,9.008c-1.279,3.026-2.19,5.881-2.731,8.562c-0.542,2.685-0.714,4.836-0.515,6.46v4.356
			c0.196,3.002,0.701,5.697,1.513,8.083c0.811,2.388,1.869,4.504,3.174,6.35c1.303,1.846,2.867,3.581,4.688,5.204
			c1.821,1.624,3.887,3.2,6.201,4.726c4.823,3.298,10.569,5.733,17.237,7.309c6.669,1.575,13.719,2.361,21.151,2.361
			c16.931,0,29.997-3.543,39.201-10.63c8.22-6.545,13.141-15.798,14.766-27.759c0.194-0.738,0.294-1.451,0.294-2.14
			c0-0.837,0-1.648,0-2.438c0-2.41-0.246-4.957-0.737-7.64c-0.494-2.682-1.268-5.327-2.325-7.937
			c-1.059-2.608-2.474-5.143-4.245-7.604c-1.772-2.46-3.864-4.652-6.276-6.571c-4.33-3.347-9.595-6.2-15.798-8.563
			c-6.201-2.361-13.83-3.544-22.885-3.544H257.657z"/>
		<path fill="#F7F8F8" d="M342.482,102.837h-9.08V0h65.63v7.604c0,5.218-0.887,10.225-2.658,15.022
			c-1.771,4.8-4.725,9.033-8.858,12.699c-4.135,3.667-9.598,6.606-16.39,8.822c-6.792,2.214-15.232,3.322-25.322,3.322h-3.321
			V102.837z M342.482,39.938l3.912,0.148c6.449,0,12.022-0.603,16.722-1.81c4.7-1.205,8.686-2.743,11.959-4.613
			s5.894-3.987,7.862-6.349c1.969-2.363,3.507-4.676,4.616-6.939c1.106-2.264,1.856-4.38,2.251-6.35
			c0.393-1.968,0.59-3.519,0.59-4.65c0-0.787-0.026-1.28-0.074-1.478c-0.049-0.195-0.124-0.295-0.221-0.295h-47.617V39.938z"/>
		<path fill="#F7F8F8" d="M431.818,0h9.08v92.28h91.23v7.53H431.818V0z"/>
		<path fill="#F7F8F8" d="M552.603,99.811L627.46,0h7.603l52.564,99.811h-10.114l-14.545-27.241h-79.213l-20.523,27.241H552.603z
			 M589.513,65.04h69.837l-28.864-54.704L589.513,65.04z"/>
		<path fill="#F7F8F8" d="M732.954,7.604h-45.326V0h99.811v7.604h-45.401v92.207h-9.083V7.604z"/>
	</g>
</g>
</svg>
