<?xml version="1.0" encoding="utf-8"?>
<!-- Generator: Adobe Illustrator 16.0.0, SVG Export Plug-In . SVG Version: 6.00 Build 0)  -->
<!DOCTYPE svg PUBLIC "-//W3C//DTD SVG 1.1//EN" "http://www.w3.org/Graphics/SVG/1.1/DTD/svg11.dtd">
<svg version="1.1" xmlns="http://www.w3.org/2000/svg" xmlns:xlink="http://www.w3.org/1999/xlink" x="0px" y="0px"
	 width="102.491px" height="81.14px" viewBox="0 0 102.491 81.14" enable-background="new 0 0 102.491 81.14" xml:space="preserve">
<g id="bg">
</g>
<g id="圖層_3">
</g>
<g id="圖層_2">
	<path fill="#F7F8F8" d="M102.491,41.606V40.62c0-21.77-17.316-39.688-39.041-40.602C63.528,0.018,63.612,0,63.693,0h-0.389
		c-0.008,0-0.016,0-0.024,0h-0.392c-0.363-0.03-0.697-0.03-1.071-0.03L60.833,0l0,0H20.046H0c0,11.076,8.978,20.049,20.046,20.049
		v41.014C8.978,61.062,0,70.03,0,81.104h20.046h40.814v0.035h1.947v-0.035h0.972c-0.325,0-0.647-0.04-0.972-0.049v-39.45H102.491z
		 M80.664,20.762c0,10.077-7.936,18.325-17.855,18.816L62.787,1.979C72.728,2.47,80.664,10.721,80.664,20.762z M20.142,40.553
		c0-21.447,17.969-38.952,40.693-40.404l0.026,80.816C38.115,79.527,20.142,62.003,20.142,40.553z"/>
</g>
</svg>
