<?xml version="1.0" encoding="utf-8"?>
<!-- Generator: Adobe Illustrator 16.0.0, SVG Export Plug-In . SVG Version: 6.00 Build 0)  -->
<!DOCTYPE svg PUBLIC "-//W3C//DTD SVG 1.1//EN" "http://www.w3.org/Graphics/SVG/1.1/DTD/svg11.dtd">
<svg version="1.1" xmlns="http://www.w3.org/2000/svg" xmlns:xlink="http://www.w3.org/1999/xlink" x="0px" y="0px" width="104px"
	 height="81.751px" viewBox="0 0 104 81.751" enable-background="new 0 0 104 81.751" xml:space="preserve">
<g id="bg">
</g>
<g id="圖層_2">
	<path fill="#F7F8F8" d="M103.245,41.636v-0.987c0-21.771-17.315-39.688-39.042-40.603c0.078,0,0.162-0.018,0.244-0.018h-0.388
		c-0.009,0-0.017,0-0.025,0h-0.391C63.278,0,62.945,0,62.57,0l-0.983,0.028l0,0H20.799H0.754c0,11.077,8.978,20.049,20.045,20.049
		v41.015c-11.067,0-20.045,8.967-20.045,20.042h20.045h40.815v0.034h1.948v-0.034h0.971c-0.325,0-0.647-0.041-0.971-0.049V41.636
		H103.245z M81.417,20.792c0,10.075-7.936,18.323-17.855,18.815L63.54,2.009C73.482,2.5,81.417,10.75,81.417,20.792z M20.896,40.583
		c0-21.447,17.968-38.953,40.693-40.404l0.025,80.815C38.869,79.556,20.896,62.034,20.896,40.583z"/>
</g>
</svg>
