<?xml version="1.0" encoding="utf-8"?>
<!-- Generator: Adobe Illustrator 16.0.0, SVG Export Plug-In . SVG Version: 6.00 Build 0)  -->
<!DOCTYPE svg PUBLIC "-//W3C//DTD SVG 1.1//EN" "http://www.w3.org/Graphics/SVG/1.1/DTD/svg11.dtd">
<svg version="1.1" xmlns="http://www.w3.org/2000/svg" xmlns:xlink="http://www.w3.org/1999/xlink" x="0px" y="0px"
	 width="164.011px" height="81.14px" viewBox="0 0 164.011 81.14" enable-background="new 0 0 164.011 81.14" xml:space="preserve">
<g id="bg">
</g>
<g id="圖層_2">
	<g>
		<g>
			<g>
				<path fill="#F7F8F8" d="M102.49,41.605v-0.986c0-21.771-17.315-39.688-39.041-40.602C63.527,0.018,63.611,0,63.692,0h-0.389
					c-0.008,0-0.016,0-0.024,0h-0.392c-0.363-0.03-0.697-0.03-1.071-0.03L60.833,0l0,0H20.046H0
					c0,11.076,8.978,20.048,20.046,20.048v41.015C8.978,61.062,0,70.03,0,81.104h20.046H60.86v0.035h1.947v-0.035h0.972
					c-0.325,0-0.647-0.04-0.972-0.049v-39.45H102.49z M80.663,20.762c0,10.075-7.936,18.323-17.855,18.814L62.786,1.979
					C72.728,2.47,80.663,10.721,80.663,20.762z M20.142,40.553c0-21.447,17.969-38.952,40.693-40.404l0.025,80.816
					C38.114,79.527,20.142,62.003,20.142,40.553z"/>
			</g>
			<g>
				<path fill="#F7F8F8" d="M70.071,68.668h1.085v11.926h-1.085V68.668z"/>
				<path fill="#F7F8F8" d="M72.55,68.668h1.086l7.587,10.118V68.668h1.085v11.926h-1.085l-7.587-10.1v10.1H72.55V68.668z"/>
				<path fill="#F7F8F8" d="M83.755,68.668h7.896v0.908H84.84v1.466h5.364v0.898H84.84v8.654h-1.085V68.668z"/>
				<path fill="#F7F8F8" d="M93.701,72.779c0.345-0.752,0.822-1.417,1.435-1.995c0.652-0.616,1.441-1.111,2.368-1.481
					c0.925-0.37,1.986-0.583,3.181-0.635h0.273c1.275,0,2.355,0.16,3.241,0.48c0.886,0.321,1.616,0.735,2.192,1.239
					c0.701,0.613,1.193,1.291,1.482,2.038c0.289,0.747,0.432,1.46,0.432,2.135c0,0.105,0,0.221,0,0.344
					c0,0.106-0.012,0.21-0.035,0.31c-0.229,1.693-0.926,2.994-2.09,3.898c-1.277,0.989-3.109,1.481-5.496,1.481
					c-1.06,0-2.049-0.111-2.969-0.334c-0.921-0.223-1.73-0.564-2.431-1.024c-0.688-0.428-1.225-0.962-1.61-1.6
					c-0.385-0.638-0.577-1.393-0.577-2.262v-0.16C93.155,74.343,93.357,73.532,93.701,72.779z M100.702,69.594
					c-1.023,0.048-1.921,0.24-2.691,0.579c-0.771,0.337-1.443,0.742-2.021,1.213c-0.294,0.235-0.554,0.531-0.78,0.887
					c-0.227,0.355-0.417,0.713-0.569,1.075c-0.153,0.362-0.262,0.704-0.326,1.023c-0.065,0.321-0.085,0.579-0.062,0.772v0.521
					c0.023,0.357,0.084,0.68,0.181,0.967c0.097,0.286,0.223,0.538,0.38,0.759c0.154,0.219,0.342,0.427,0.561,0.62
					c0.217,0.195,0.464,0.384,0.74,0.566c0.576,0.394,1.263,0.684,2.061,0.874c0.797,0.187,1.639,0.28,2.527,0.28
					c2.022,0,3.584-0.421,4.684-1.269c0.982-0.782,1.57-1.887,1.765-3.317c0.023-0.089,0.036-0.173,0.036-0.255
					c0-0.1,0-0.197,0-0.292c0-0.288-0.03-0.592-0.088-0.912c-0.06-0.321-0.152-0.637-0.279-0.948
					c-0.126-0.312-0.295-0.616-0.507-0.91c-0.212-0.292-0.462-0.555-0.75-0.783c-0.518-0.4-1.146-0.744-1.888-1.024
					c-0.741-0.282-1.652-0.424-2.734-0.424H100.702z"/>
				<path fill="#F7F8F8" d="M110.839,80.958h-1.086v-12.29h7.844v0.908c0,0.623-0.106,1.222-0.318,1.795
					c-0.211,0.574-0.564,1.08-1.059,1.518c-0.494,0.438-1.146,0.789-1.959,1.054c-0.812,0.265-1.82,0.396-3.025,0.396h-0.396V80.958
					z M110.839,73.44l0.467,0.019c0.771,0,1.437-0.072,1.998-0.217c0.562-0.144,1.038-0.328,1.43-0.55
					c0.391-0.224,0.704-0.477,0.939-0.76c0.234-0.282,0.418-0.557,0.552-0.829c0.132-0.271,0.222-0.523,0.269-0.759
					c0.047-0.235,0.07-0.42,0.07-0.556c0-0.094-0.003-0.152-0.008-0.176c-0.007-0.023-0.016-0.035-0.027-0.035h-5.689V73.44z"/>
				<path fill="#F7F8F8" d="M121.514,68.668h1.085v11.027h10.902v0.899h-11.987V68.668z"/>
				<path fill="#F7F8F8" d="M135.947,80.594l8.946-11.926h0.908l6.281,11.926h-1.208l-1.739-3.254h-9.466l-2.452,3.254H135.947z
					 M140.358,76.44h8.346l-3.449-6.536L140.358,76.44z"/>
				<path fill="#F7F8F8" d="M157.5,69.577h-5.417v-0.908h11.928v0.908h-5.425v11.018H157.5V69.577z"/>
			</g>
		</g>
	</g>
</g>
</svg>
